PathFileType	4	(X/Y/Z)	C:\Users\Basilio\Documents\Thesis Gigler\squatting_fais\c3dfiles\040\SJ_pre5\markers_experimental.trc
DataRate	CameraRate	NumFrames	NumMarkers	Units	OrigDataRate	OrigDataStartFrame	OrigNumFrames
200.000000	200.000000	4	62	mm	200.000000	436	1165
Frame#	Time	FHD			LBHD			RBHD			C7			T10			CLAV			LSHO			LUUPA			LMUPA			LDUPA			LLEP			LMEP			LRAD			LUL			LRFIN			RSHO			RUPA1			RMUPA			RDUPA			RLEP			RMEP			RRAD			RUL			RUFIN			LASI			RASI			USACR			LSACR			RSACR			LTHI1			LTHI2			LTHI3			LTHI4			LLFC			LMFC			LTIB1			LTIB2			LTIB3			LTIB4			LLMAL			LMMAL			LHEE			LMT1			LMT2			LMT5			RTHI			RTHI2			RTHI3			RTHI4			RLFC			RMFC			RTIB1			RTIB2			RTIB3			RTIB4			RLMAL			RMMAL			RHEE			RMT1			RMT2			RMT5			*61			
		X1	Y1	Z1	X2	Y2	Z2	X3	Y3	Z3	X4	Y4	Z4	X5	Y5	Z5	X6	Y6	Z6	X7	Y7	Z7	X8	Y8	Z8	X9	Y9	Z9	X10	Y10	Z10	X11	Y11	Z11	X12	Y12	Z12	X13	Y13	Z13	X14	Y14	Z14	X15	Y15	Z15	X16	Y16	Z16	X17	Y17	Z17	X18	Y18	Z18	X19	Y19	Z19	X20	Y20	Z20	X21	Y21	Z21	X22	Y22	Z22	X23	Y23	Z23	X24	Y24	Z24	X25	Y25	Z25	X26	Y26	Z26	X27	Y27	Z27	X28	Y28	Z28	X29	Y29	Z29	X30	Y30	Z30	X31	Y31	Z31	X32	Y32	Z32	X33	Y33	Z33	X34	Y34	Z34	X35	Y35	Z35	X36	Y36	Z36	X37	Y37	Z37	X38	Y38	Z38	X39	Y39	Z39	X40	Y40	Z40	X41	Y41	Z41	X42	Y42	Z42	X43	Y43	Z43	X44	Y44	Z44	X45	Y45	Z45	X46	Y46	Z46	X47	Y47	Z47	X48	Y48	Z48	X49	Y49	Z49	X50	Y50	Z50	X51	Y51	Z51	X52	Y52	Z52	X53	Y53	Z53	X54	Y54	Z54	X55	Y55	Z55	X56	Y56	Z56	X57	Y57	Z57	X58	Y58	Z58	X59	Y59	Z59	X60	Y60	Z60	X61	Y61	Z61	X62	Y62	Z62	

437	2.18	1.667345881462098	1125.768798828125	-895.942810058594	-120.233512878418	1063.974487304688	-930.2585449218752	-166.0762329101563	1025.660400390625	-794.7241210937502	-185.9952392578125	965.9932250976565	-851.8084716796877	-421.3735656738282	775.2957153320315	-854.2957763671877	-122.9897003173828	830.9133300781252	-843.8801879882815	-102.5567321777344	871.3457031250002	-1016.681640625	-204.1299438476563	803.3258056640627	-1183.8076171875	-232.4880523681641	763.3489379882814	-1176.295043945313	-248.9616699218751	779.2907714843752	-1231.9716796875	-298.9212646484376	762.9841308593751	-1277.256958007813	-344.0899658203126	821.796081542969	-1260.578002929688	-514.8812866210939	671.9501342773439	-1093.666137695313	-492.0987243652345	606.4411621093751	-1120.609497070313	-476.5747375488282	661.8558959960939	-1038.521606445313	-129.553695678711	870.5283203125002	-674.3961791992189	-249.2909240722657	872.8918457031252	-514.9755249023439	-270.0935974121094	827.7608642578127	-506.369842529297	-296.6210327148438	861.0049438476565	-464.2504272460939	-349.3301391601563	831.1570434570315	-422.2524414062501	-408.8674316406251	879.9138183593752	-463.9642333984376	-474.8320922851564	675.4611206054689	-627.5572509765626	-464.2024230957032	616.0924682617189	-579.5631103515626	-423.7436828613282	651.1599731445314	-674.8413696289064	-420.542938232422	580.9898681640626	-955.4468383789065	-421.7382202148439	569.0450439453126	-747.7492675781251	-554.1080322265626	689.0247192382814	-852.103942871094	-580.5362548828126	669.5189208984376	-880.2115478515627	-585.1339721679689	670.6586914062501	-825.9504394531252	-404.2422790527345	469.4141235351564	-1089.923217773438	-324.0313110351563	489.0650634765626	-1113.291015625	-309.0409240722657	532.1018066406251	-1102.501708984375	-279.3857421875001	450.1533508300782	-1122.905639648438	-164.6613006591797	433.9620971679689	-1143.218139648438	-141.9900512695313	384.3861389160157	-1022.261779785156	-220.6764678955079	238.2863464355469	-1121.518432617188	-307.7724609375001	254.1751251220704	-1143.042358398438	-275.3273620605469	222.7781524658204	-1136.701293945313	-308.5775756835938	150.0627593994141	-1111.12646484375	-411.0442810058595	104.7547836303711	-1113.114501953125	-360.1977844238282	97.76391601562503	-1040.5693359375	-471.0184020996095	47.88983917236329	-1072.156372070313	-250.1065521240235	56.89070510864259	-1099.7587890625	-261.8712158203126	55.47509002685548	-1145.169677734375	-317.5286560058594	33.64556884765626	-1184.3173828125	-392.1090393066407	497.7913208007814	-602.6379394531251	-327.9643859863282	508.460662841797	-586.7432250976564	-312.0631103515626	537.1383056640626	-597.6282958984376	-270.2785339355469	448.249481201172	-569.0373535156251	-179.8644714355469	410.7403869628907	-549.8275146484376	-148.2718963623047	392.7700500488282	-680.0221557617189	-221.3175659179688	245.0086212158204	-584.6072387695314	-330.9622192382813	233.0527496337891	-581.4208984375001	-294.3622741699219	202.5101928710938	-586.9395751953126	-305.3617248535157	156.7194976806641	-620.8026733398439	-416.1998901367189	100.7129821777344	-619.8261718750001	-376.4756469726563	101.3321685791016	-700.9934692382814	-477.327362060547	50.68349838256837	-681.2313842773439	-260.1494140625001	55.53242874145509	-630.7057495117189	-272.9177246093751	57.96529006958009	-592.3431396484376	-326.7508850097657	34.00209045410157	-550.9782714843751	nan	nan	nan	
438	2.185	1.74302101135254	1125.800170898438	-896.1323242187502	-120.9067611694336	1064.465942382813	-930.476257324219	-166.1639556884766	1025.713256835938	-795.0244140625002	-185.9513397216797	966.072692871094	-852.1602172851565	-421.4381408691407	775.2762451171877	-854.5067138671877	-122.7489013671875	830.8225097656252	-844.151550292969	-102.3712387084961	871.4406738281252	-1016.922485351563	-203.8861389160157	802.938659667969	-1183.983520507813	-232.3101043701172	763.1030273437501	-1176.38916015625	-248.7994689941407	778.9530029296877	-1232.081909179688	-298.6083374023438	762.5549926757814	-1277.419189453125	-343.8188781738282	821.3054199218752	-1260.917358398438	-514.7050170898439	671.5879516601564	-1094.0302734375	-491.7875366210939	606.1026000976564	-1120.88671875	-476.5477600097657	661.6384277343751	-1038.73876953125	-129.440414428711	870.6110839843752	-674.6594238281251	-249.2150878906251	873.0419921875002	-515.2138061523439	-269.9394226074219	827.7661743164065	-506.7437744140626	-296.6566162109376	861.0930786132815	-464.3525695800782	-349.3829040527344	831.1795043945315	-422.4043273925782	-408.9406127929689	879.857604980469	-464.2265014648439	-474.7367248535157	675.3586425781251	-627.7017822265626	-464.0674133300782	616.0255737304689	-579.5590209960939	-423.6900329589845	651.0923461914064	-675.0383911132814	-420.4692382812501	580.9354248046876	-955.5657348632815	-418.0401916503907	571.7695922851564	-748.2968750000001	-553.5874633789064	688.9359741210939	-852.1070556640627	-580.4916381835939	669.4597167968751	-880.4000244140627	-582.1943969726564	670.0571289062501	-825.2272949218752	-403.9951477050782	469.1463928222657	-1089.879760742188	-323.6210327148438	488.6082153320314	-1113.334106445313	-308.7549133300782	531.8103027343751	-1102.448608398438	-279.1268310546876	449.8971557617189	-1122.777099609375	-164.3543548583985	433.7474975585939	-1143.175048828125	-141.9602661132813	385.0957031250001	-1022.609069824219	-220.5769958496094	238.2859802246094	-1121.50439453125	-307.5594787597657	254.0334777832032	-1143.132202148438	-275.1292114257813	222.2360076904297	-1136.774536132813	-308.4748840332032	149.8901824951172	-1111.004638671875	-411.0482788085939	104.7278137207032	-1113.168212890625	-360.1998901367188	97.75928497314456	-1040.571655273438	-471.052459716797	47.85917663574219	-1072.160766601563	-250.0267944335938	56.85103225708009	-1099.767333984375	-261.7806091308594	55.80848312377931	-1145.076538085938	-317.5095825195313	33.62011718750001	-1184.304077148438	-391.8061828613282	497.6801147460939	-602.8982543945314	-327.6162719726563	508.4600524902345	-587.1288452148439	-311.9197387695313	537.1275024414064	-597.9682617187501	-270.1012878417969	448.2975158691407	-569.1453857421876	-179.7732696533203	410.8047180175782	-550.1937866210939	-148.311279296875	392.6130371093751	-680.4661865234376	-221.2986755371094	244.9664764404297	-584.9925537109376	-330.8368225097657	233.0517120361329	-581.5952148437501	-294.5455017089844	202.2651672363282	-587.1649780273439	-305.4768066406251	156.6416168212891	-621.0410156250001	-416.1332092285157	100.7732620239258	-619.8779907226564	-376.7031555175782	101.2496948242188	-700.7787475585939	-477.3551635742189	50.74287033081056	-681.2344970703126	-260.1550292968751	55.73963165283205	-630.7904663085939	-272.8674621582032	57.91839599609376	-592.4462890625001	-326.7494506835938	34.05087661743165	-551.0375366210939	nan	nan	nan	
439	2.19	1.647672057151795	1125.911865234375	-896.2966918945315	-120.9605484008789	1064.518310546875	-930.7241210937502	-166.5564880371094	1025.972534179688	-795.2512817382815	-185.8892211914063	966.2574462890627	-852.5059204101565	-421.3388061523439	775.322937011719	-854.6829223632815	-122.5858459472657	830.8911743164065	-844.4964599609377	-102.3244171142578	871.5196533203127	-1017.134155273438	-203.6143493652344	802.4328613281252	-1184.161010742188	-232.1415252685547	762.9027709960939	-1176.545654296875	-248.6295318603516	778.4631958007815	-1232.171630859375	-298.4331054687501	762.0911865234376	-1277.567626953125	-343.4856872558594	820.789245605469	-1261.29541015625	-514.5618896484376	671.2164306640626	-1094.339111328125	-491.6555175781251	605.7847290039064	-1121.043090820313	-476.3646240234376	661.3735961914064	-1038.9736328125	-129.3247680664063	870.8406372070315	-674.9191894531251	-249.2236938476563	873.2036743164065	-515.3922119140626	-269.9526367187501	828.1265869140627	-507.0368652343751	-296.6733398437501	861.1086425781252	-464.5935363769532	-349.3951416015626	831.1999511718752	-422.5695800781251	-408.9503784179689	879.7297363281252	-464.4377746582032	-474.6339111328126	675.1068725585939	-627.8186035156251	-463.7963256835939	615.6802368164064	-580.1035766601564	-423.7069396972657	650.9606933593751	-675.2640380859376	-420.5266723632814	580.8289794921876	-955.4571533203127	-417.642303466797	572.1097412109376	-748.2476196289064	-553.9301757812501	688.7424926757814	-852.441589355469	-579.4283447265626	669.0665893554689	-880.1346435546877	-582.1128540039064	669.9687500000001	-825.5290527343752	-403.904998779297	468.9819946289064	-1089.936401367188	-323.5122680664063	488.4397277832032	-1113.366333007813	-308.5535888671876	531.5305786132814	-1102.572875976563	-279.0155639648438	449.7806396484376	-1122.684814453125	-164.2047729492188	433.5827636718751	-1143.22802734375	-141.721923828125	385.0343017578126	-1022.493408203125	-220.3336334228516	238.2361450195313	-1121.472412109375	-307.4070739746094	253.8695068359376	-1143.224853515625	-274.8146972656251	221.9754943847657	-1136.644409179688	-308.0364379882813	149.0065002441407	-1111.033325195313	-411.0718383789064	104.7078475952149	-1113.246337890625	-360.3078308105469	98.03251647949222	-1040.71923828125	-471.0775756835939	47.90395736694337	-1072.21923828125	-249.9740295410157	56.86960220336915	-1099.793212890625	-261.8007812500001	55.41706466674806	-1145.17822265625	-317.4931030273438	33.61809921264649	-1184.307250976563	-391.4261779785157	497.5874023437501	-603.3574218750001	-327.4471740722657	508.3609924316407	-587.5057373046876	-311.7166442871094	536.5769653320314	-598.8668212890626	-269.9123229980469	448.4031677246095	-569.5352172851564	-179.5745086669922	410.8177490234376	-550.6058959960939	-148.3510894775391	392.4337158203126	-680.9044189453126	-221.1110992431641	245.1292877197266	-585.4002075195314	-330.7239685058594	233.1177520751954	-581.7283325195314	-294.6183776855469	202.2392272949219	-587.3428955078126	-305.3944091796876	156.6611785888672	-621.1296997070314	-416.1079406738282	100.8092422485352	-619.8858642578126	-376.4497070312501	101.2669525146485	-701.1319580078126	-477.3048400878907	50.67152023315431	-681.3230590820314	-260.2088928222657	55.86435317993165	-630.8308105468751	-272.8893127441407	57.9242515563965	-592.4562988281251	-326.6992797851563	34.00727081298829	-551.0698242187501	nan	nan	nan	
440	2.195	1.59469485282898	1126.120239257813	-896.4824218750002	-121.0579986572266	1064.6220703125	-930.9244384765627	-166.5914154052735	1026.073608398438	-795.4703369140627	-185.8703918457032	966.2886962890627	-852.766540527344	-421.3284301757814	775.2459716796877	-854.8909301757815	-122.5066146850586	831.258972167969	-844.6812133789065	-102.3088912963867	871.5555419921877	-1017.468444824219	-203.3982086181641	802.1006469726565	-1184.366333007813	-231.9522247314454	762.5437622070314	-1176.653076171875	-248.505111694336	778.017517089844	-1232.257446289063	-298.1831054687501	761.6151733398439	-1277.802001953125	-343.3036193847657	820.336364746094	-1261.56103515625	-514.3381347656251	670.7136230468751	-1094.681274414063	-491.4771728515626	605.1898803710939	-1121.0888671875	-476.2263793945314	661.0635986328126	-1039.165283203125	-129.3983306884766	871.0921020507815	-675.0609130859376	-249.3022613525391	873.1990966796877	-515.6143188476564	-269.9064331054688	828.2019653320315	-507.3177795410157	-296.6581420898438	861.1895751953127	-464.8479309082032	-349.4467163085938	831.1842041015627	-422.7634887695314	-408.9957885742189	879.6765747070315	-464.6442871093751	-474.5172729492189	674.8773803710939	-628.0453491210939	-463.7111206054689	615.4834594726564	-580.2107543945314	-423.7003784179689	650.9342651367189	-675.4749755859376	-420.2895812988282	580.7710571289064	-955.7124633789065	-418.0064697265626	572.1934204101564	-748.4586181640626	-553.9982910156251	688.7563476562501	-852.6571044921877	-580.4354248046876	669.2860107421876	-880.7937622070315	-582.2212524414064	669.9220581054689	-825.7261962890627	-403.7283325195314	468.7598266601564	-1090.010620117188	-323.3020019531251	488.2113342285157	-1113.415405273438	-308.4033813476563	531.2701416015626	-1102.704345703125	-278.8189697265626	449.5231018066407	-1122.67236328125	-163.9962615966797	433.5310363769532	-1143.22265625	-141.4979248046875	384.9020385742189	-1022.386657714844	-220.4138336181641	238.383285522461	-1121.284790039063	-307.1033325195313	253.6773681640626	-1143.261108398438	-274.5274047851563	221.7627258300782	-1136.571899414063	-307.8499145507813	148.8507080078125	-1110.757446289063	-411.0208740234376	104.7685317993164	-1113.291015625	-360.2975769042969	98.01048278808597	-1040.724365234375	-471.0373840332032	47.84699630737305	-1072.243408203125	-250.0197448730469	56.85290908813478	-1099.72802734375	-261.8360900878907	55.36680221557619	-1145.180908203125	-317.4997253417969	33.62582397460938	-1184.31005859375	-391.0698242187501	497.4205932617189	-603.8170776367189	-326.9612731933594	508.2549133300782	-587.9855957031251	-311.4286804199219	536.6131591796876	-599.4321899414064	-269.6189270019532	448.1724548339845	-569.8666381835939	-179.3353118896485	410.7693176269532	-551.0382080078126	-148.2462463378907	392.2958374023439	-681.3494873046876	-221.0088806152344	245.0684814453126	-585.7183227539064	-330.4242553710938	233.2090301513672	-581.9616088867189	-294.6379394531251	202.2250518798829	-587.4824829101564	-305.3527526855469	156.5717163085938	-621.4321899414064	-416.1205444335939	100.8488159179688	-619.9558105468751	-376.4038391113282	101.1769180297852	-701.1165161132814	-477.2979736328126	50.7030487060547	-681.3219604492189	-260.0110168457032	55.43441009521486	-630.8367919921876	-272.8271484375001	58.04822158813478	-592.5198364257814	-326.7350769042969	34.05646514892579	-551.0746459960939	nan	nan	nan	
